# xmcd CD database file
#
# Track frame offsets:
#	150
#	11875
#	24680
#	37900
#	52085
#	64260
#	77180
#	88980
#	102265
#	116820
#	128955
#	141840
#	151910
#	162525
#	175380
#	185850
#	195350
#	210175
#	222980
#	235660
#	245810
#
# Disc length: 3460 seconds
#
# Revision: 0
# Processed by: cddbd v1.4PL0 Copyright (c) Steve Scherf et al.
# Submitted via: CDex 1.50beta9
#
DISCID=370d8215
DTITLE=Bienvenido Granda - A Era de Ouro do Bolero
DYEAR=1900
DGENRE=Bolero
TTITLE0=Perfume de Gardenia
TTITLE1=Gracias
TTITLE2=Total
TTITLE3=En la Orilla del Mar
TTITLE4=Sonando Contigo
TTITLE5=Oracion Caribe
TTITLE6=Senora
TTITLE7=Angustia
TTITLE8=Ojos Malos
TTITLE9=Egoismo
TTITLE10=Florecilla de Amor
TTITLE11=La Ultima Noche
TTITLE12=Amargo Vivir
TTITLE13=Traicionera
TTITLE14=Hipocrita
TTITLE15=La misma Gente
TTITLE16=Oyeme Mama
TTITLE17=Aventureira
TTITLE18=La Cancion del Borracho
TTITLE19=Tonto Corazon
TTITLE20=Sombrero de tres Picos
EXTD=
EXTT0=
EXTT1=
EXTT2=
EXTT3=
EXTT4=
EXTT5=
EXTT6=
EXTT7=
EXTT8=
EXTT9=
EXTT10=
EXTT11=
EXTT12=
EXTT13=
EXTT14=
EXTT15=
EXTT16=
EXTT17=
EXTT18=
EXTT19=
EXTT20=
PLAYORDER=
